<mxfile host="app.diagrams.net" agent="Mozilla/5.0 (Macintosh; Intel Mac OS X 10_15_7) AppleWebKit/537.36 (KHTML, like Gecko) Chrome/131.0.0.0 Safari/537.36" version="26.0.2">
  <diagram name="第 1 页" id="RelA-6HZ0U8eFVI_-0-G">
    <mxGraphModel dx="1020" dy="550" grid="1" gridSize="10" guides="1" tooltips="1" connect="1" arrows="1" fold="1" page="1" pageScale="1" pageWidth="3200" pageHeight="2400" math="0" shadow="0">
      <root>
        <mxCell id="0" />
        <mxCell id="1" parent="0" />
        <mxCell id="akdoCQyB_l1M4Xjp9bFG-1" value="&lt;b&gt;DNS SERVER&lt;/b&gt;" style="shape=cylinder3;whiteSpace=wrap;html=1;boundedLbl=1;backgroundOutline=1;size=15;fillColor=#f8cecc;strokeColor=#b85450;" vertex="1" parent="1">
          <mxGeometry x="770" y="164" width="60" height="92" as="geometry" />
        </mxCell>
        <mxCell id="akdoCQyB_l1M4Xjp9bFG-8" value="&lt;font style=&quot;font-size: 14px;&quot;&gt;&lt;b&gt;Chrome&lt;/b&gt;&lt;/font&gt;" style="ellipse;whiteSpace=wrap;html=1;aspect=fixed;fillColor=#dae8fc;strokeColor=#6c8ebf;" vertex="1" parent="1">
          <mxGeometry x="350" y="170" width="80" height="80" as="geometry" />
        </mxCell>
        <mxCell id="akdoCQyB_l1M4Xjp9bFG-17" value="" style="endArrow=classic;html=1;rounded=0;" edge="1" parent="1">
          <mxGeometry width="50" height="50" relative="1" as="geometry">
            <mxPoint x="450" y="199" as="sourcePoint" />
            <mxPoint x="750" y="199" as="targetPoint" />
          </mxGeometry>
        </mxCell>
        <mxCell id="akdoCQyB_l1M4Xjp9bFG-18" value="&lt;font style=&quot;font-size: 14px;&quot;&gt;&lt;b&gt;域名解析&lt;/b&gt;&lt;/font&gt;" style="edgeLabel;html=1;align=center;verticalAlign=middle;resizable=0;points=[];" vertex="1" connectable="0" parent="akdoCQyB_l1M4Xjp9bFG-17">
          <mxGeometry x="-0.0533" y="3" relative="1" as="geometry">
            <mxPoint y="3" as="offset" />
          </mxGeometry>
        </mxCell>
        <mxCell id="akdoCQyB_l1M4Xjp9bFG-19" value="" style="endArrow=classic;html=1;rounded=0;" edge="1" parent="1">
          <mxGeometry width="50" height="50" relative="1" as="geometry">
            <mxPoint x="750" y="223" as="sourcePoint" />
            <mxPoint x="450" y="223" as="targetPoint" />
          </mxGeometry>
        </mxCell>
        <mxCell id="akdoCQyB_l1M4Xjp9bFG-20" value="&lt;font style=&quot;font-size: 14px;&quot;&gt;&lt;b&gt;域名解析结果&lt;/b&gt;&lt;/font&gt;" style="edgeLabel;html=1;align=center;verticalAlign=middle;resizable=0;points=[];" vertex="1" connectable="0" parent="akdoCQyB_l1M4Xjp9bFG-19">
          <mxGeometry x="-0.0533" y="3" relative="1" as="geometry">
            <mxPoint y="-4" as="offset" />
          </mxGeometry>
        </mxCell>
      </root>
    </mxGraphModel>
  </diagram>
</mxfile>
